<svg width="70" height="44" viewBox="0 0 70 44" fill="none"
    xmlns="http://www.w3.org/2000/svg">
    <path d="M25.333 26.4567L28.0278 27.5404C29.2694 28.0391 30.6365 28.0391 31.8817 27.5404H31.8889C33.6256 26.837 35.5382 26.837 37.2749 27.5404C38.5201 28.0391 39.8908 28.0391 41.1324 27.5404L43.8272 26.4567V16.6211H25.333V26.4567ZM30.9774 22.043H33.6759V18.4655L34.5837 17.5612L35.4915 18.4655V22.043H38.19L39.1193 25.617H35.3911V23.9305C35.3911 23.4856 35.0287 23.1267 34.5873 23.1267C34.1459 23.1267 33.7799 23.4856 33.7799 23.9305V25.617H30.0517L30.981 22.043H30.9774Z" fill="white"/>
    <path d="M43.8274 28.5594L41.1326 29.6431C39.891 30.1419 38.5203 30.1419 37.2751 29.6431C35.5384 28.9434 33.6258 28.9434 31.889 29.6431H31.8819C30.6403 30.1419 29.2696 30.1419 28.028 29.6431L25.3332 28.5594V33.9742C25.3332 33.9742 25.1717 39.7191 34.5803 44C43.9889 39.7191 43.8274 33.9742 43.8274 33.9742V28.5594ZM39.1159 39.4213H37.2034V37.5984C37.2034 37.4154 37.1172 37.2396 36.9701 37.132C36.3099 36.6475 35.5922 37.1068 35.5922 37.7348V39.4213H33.5756V37.5984C33.5756 37.4154 33.4894 37.2396 33.3423 37.132C32.6821 36.6475 31.9644 37.1068 31.9644 37.7348V39.4213H30.0518V33.4755L30.9561 32.5676L31.8639 33.4755V35.8437H33.676V32.2698L34.5839 31.3619L35.4917 32.2698V35.8437H37.3074V33.4755L38.2117 32.5676L39.1195 33.4755V39.4213H39.1159Z" fill="white"/>
    <path d="M35.2988 4.48181L34.6959 2.55847L35.9231 2.17452L35.5894 1.1052L34.3622 1.48915L33.8957 0L32.8264 0.333714L33.2929 1.82287L32.0657 2.20682L32.3994 3.27614L33.6266 2.89219L34.1218 4.47464C29.9486 4.59664 26.45 6.2975 25.334 8.57968V11.9993H26.8806V13.5459H25.334V14.8844H43.8282V13.5459H42.2816V11.9993H43.8282V8.56891C42.7338 6.3298 39.3679 4.65764 35.2988 4.4854V4.48181ZM31.3157 13.5423H29.7691V11.9958H31.3157V13.5423ZM32.7403 10.6609H32.7188L30.5442 8.48638L28.4164 10.6143C28.4164 9.68847 27.8422 8.89904 27.0348 8.56891C27.9965 7.39912 30.0203 6.3298 32.7403 5.98532V10.6609ZM34.5847 13.8115C34.0105 13.8115 33.5477 13.345 33.5477 12.7744C33.5477 12.2039 34.0141 11.7374 34.5847 11.7374C35.1552 11.7374 35.6217 12.2039 35.6217 12.7744C35.6217 13.345 35.1588 13.8115 34.5847 13.8115ZM39.3966 13.5459H37.85V11.9993H39.3966V13.5459ZM40.7494 10.6143L38.6215 8.48638L36.447 10.6609H36.4255V5.98173C39.1526 6.32262 41.1872 7.38835 42.156 8.55815C41.3343 8.8811 40.7494 9.6777 40.7494 10.6143Z" fill="white"/>
    <path d="M66.1439 33.6764C66.8329 33.6764 67.5003 33.4324 68.0314 32.9767C68.6773 32.4241 69.0505 31.6167 69.0505 30.7662V30.6155C69.0505 29.6969 68.5948 28.8465 67.8304 28.337C67.0661 27.8274 66.1045 27.7341 65.2576 28.0894L60.6072 30.0306C60.1837 29.3273 59.6204 27.3753 59.4158 26.6325C59.7424 26.5069 60.0546 26.349 60.3416 26.1624L61.21 27.1636C61.9025 27.9638 63.1585 27.9135 63.7864 27.0667L61.3607 25.2689C61.576 25.0178 61.7662 24.7486 61.9277 24.458L65.0244 25.2582C66.2229 25.6744 67.4967 24.8778 67.6474 23.6183L62.4444 23.0442C62.5054 22.7392 62.5377 22.4198 62.5377 22.0969C62.5377 22.0682 62.5377 22.043 62.5377 22.0179L66.3736 21.2285C67.8986 20.8445 68.6737 19.1473 67.9704 17.7442L62.2362 20.396C62.1178 20.0766 61.9671 19.7716 61.7841 19.4882L65.2576 15.9178C66.6499 14.6009 66.4669 12.3366 64.8808 11.2601L58.6049 20.6328C58.6623 20.6687 58.7161 20.7082 58.7663 20.7512C58.7843 20.7656 58.8022 20.7835 58.8202 20.7979C58.8525 20.8266 58.8848 20.8553 58.9135 20.884C58.935 20.9055 58.9529 20.9271 58.9745 20.9486C58.9996 20.9737 59.0211 21.0024 59.0426 21.0311C59.0642 21.0562 59.0821 21.085 59.1036 21.1137C59.1216 21.1388 59.1359 21.1639 59.1539 21.189C59.1754 21.2213 59.1934 21.2536 59.2113 21.2895C59.2221 21.311 59.2328 21.3325 59.2436 21.3541C59.2615 21.3936 59.2831 21.433 59.2974 21.4761C59.2974 21.4833 59.3046 21.494 59.3046 21.5012C59.3441 21.6124 59.3764 21.7273 59.3907 21.8457C59.3907 21.8564 59.3907 21.8672 59.3943 21.878C59.4015 21.9497 59.4087 22.0215 59.4087 22.0933C59.4087 22.1937 59.3943 22.287 59.3799 22.3839C59.3764 22.4126 59.3728 22.4378 59.3656 22.4665C59.3477 22.5526 59.3189 22.6387 59.2866 22.7176C59.2723 22.7499 59.2615 22.7822 59.2472 22.8145C59.2149 22.8863 59.179 22.9509 59.1359 23.0155C59.1144 23.0514 59.0893 23.0837 59.0642 23.1159C59.0283 23.1626 58.9888 23.2092 58.9493 23.2559C58.9242 23.2846 58.8991 23.3133 58.874 23.3384C58.8058 23.4066 58.7305 23.4676 58.6515 23.525C58.6372 23.5322 58.6264 23.5394 58.612 23.5465C58.5403 23.5932 58.4649 23.6327 58.386 23.6685C58.3573 23.6829 58.325 23.6937 58.2963 23.7044C58.2281 23.7295 58.1563 23.7511 58.0846 23.769C58.0523 23.7762 58.0236 23.7834 57.9913 23.7906C57.8872 23.8085 57.7831 23.8228 57.6755 23.8228C57.6145 23.8228 57.5535 23.8228 57.4925 23.8121C57.4853 23.8121 57.4781 23.8121 57.4674 23.8085C57.4135 23.8013 57.3633 23.7941 57.3131 23.7834C57.3131 23.7834 57.3095 23.7834 57.3059 23.7834C57.1695 23.7547 57.0368 23.708 56.9148 23.647C56.8968 23.6398 56.8789 23.6291 56.8609 23.6219C56.8035 23.5896 56.7497 23.5573 56.6959 23.5214C56.6528 23.4927 56.6169 23.464 56.5775 23.4317C56.5775 23.4317 56.5703 23.4281 56.5703 23.4245C56.5057 23.3707 56.4447 23.3133 56.3909 23.2523C56.3729 23.2308 56.3514 23.2092 56.3335 23.1877C56.3335 23.1877 56.3299 23.1841 56.3263 23.1805C56.0859 22.8827 55.9423 22.5059 55.9423 22.0933C55.9423 22.0179 55.9495 21.9426 55.9567 21.8708C55.9567 21.8708 55.9567 21.8672 55.9567 21.8636C55.9567 21.8564 55.9603 21.8457 55.9639 21.8385C55.9818 21.7237 56.0105 21.6088 56.05 21.5012C56.2509 20.8732 56.7282 20.0982 57.1659 19.4379C57.3812 19.1544 57.6504 18.7813 57.9231 18.3614C58.9458 16.7969 60.0617 14.5327 58.9493 13.3306L60.7543 11.2601L54.1769 11.8809C52.9856 12.0424 52.0311 13.2265 51.6651 14.3891H54.629C55.3036 14.3891 55.9531 14.6547 56.4375 15.1248L56.7964 15.4764H52.4437L52.9066 15.8137C53.6458 16.352 54.5393 16.6462 55.4543 16.6462H56.9722C55.4723 17.5218 52.4007 18.5839 51.1447 20.6651L46.7598 20.2919L47.4129 18.0169L45.3496 16.7467V21.2895L50.5024 23.8121L54.3778 23.3061L46.8711 27.8741L47.4129 25.8502L45.3496 24.58V29.5032L46.4261 29.2089C50.4845 28.1898 53.2009 28.6025 55.0165 29.6503L49.7417 34.6524L52.7344 41.3267L49.7597 40.7346L49.0599 42.9917H55.4902C55.4902 42.9917 51.8875 39.145 56.4447 37.3472C56.4447 37.3472 53.409 37.0709 52.4114 34.8605L56.4447 34.7206C56.4447 34.7206 56.8609 31.9647 56.0715 30.4074C58.935 32.9551 58.6443 37.3221 58.6443 37.3221C65.1679 36.6403 66.0291 40.1533 66.2121 41.3697L63.0042 40.731L62.3044 42.9881H68.5948L66.1152 35.3557C63.3379 35.4418 62.3367 34.2182 62.0532 33.0592L65.6774 33.6297C65.8282 33.6548 65.9825 33.6656 66.1332 33.6656L66.1439 33.6764ZM61.6765 31.3547L65.8892 29.5965C66.2372 29.4529 66.614 29.4888 66.9262 29.6969C67.2384 29.9051 67.4178 30.2388 67.4178 30.6155V30.7662C67.4178 31.1394 67.2563 31.4947 66.9692 31.7351C66.6858 31.9791 66.3126 32.0868 65.9394 32.0257L61.6729 31.3547H61.6765Z" fill="white"/>
    <path d="M18.8243 23.8157L23.769 21.4366V16.7467L21.7058 18.017L22.3373 20.2166L17.6043 20.8123C16.2659 18.0277 14.1452 16.7575 14.1452 16.7575L17.4034 16.7216L17.773 15.4728H15.0781L15.4908 14.3856H17.8914L18.3256 12.5555C18.2251 12.5627 17.895 12.5699 17.7945 12.5699C16.4955 12.5699 15.3221 12.0424 14.4717 11.1956H9.68488L10.7542 12.4551L8.62632 15.8317H10.216L8.87033 19.0217H10.4277L9.9253 22.7212L11.5006 22.915L8.8488 28.7747C8.82009 28.8501 8.7878 28.9255 8.74833 28.9972V29.0008C8.40026 29.6503 7.71489 30.0952 6.92546 30.0988C6.92187 30.0988 6.9147 30.0988 6.91111 30.1024C6.85369 30.1024 6.79628 30.0952 6.74246 30.0917C6.7281 30.0917 6.71016 30.0917 6.69581 30.0917C6.64916 30.0881 6.6061 30.0773 6.55945 30.0701C6.52357 30.063 6.4841 30.0558 6.44821 30.0486C6.41233 30.0414 6.37645 30.0307 6.34056 30.0199C6.29392 30.0055 6.24368 29.9912 6.19703 29.9732C6.17191 29.9625 6.14679 29.9553 6.12168 29.9445C6.04991 29.9158 5.97814 29.8799 5.90997 29.8441C5.90279 29.8405 5.89202 29.8333 5.88485 29.8297C5.82385 29.7938 5.76284 29.7544 5.70543 29.7149C5.69108 29.7041 5.68031 29.6969 5.66596 29.6862C5.60855 29.6431 5.55113 29.5965 5.5009 29.5462C5.49731 29.5426 5.49013 29.5355 5.48654 29.5319C5.17436 29.2376 4.95547 28.8465 4.87294 28.4087C4.87294 28.3908 4.86576 28.3728 4.86576 28.3549C4.85859 28.3011 4.85141 28.2437 4.84423 28.1863C4.84423 28.1504 4.84065 28.1109 4.83706 28.075C4.83706 28.0571 4.83706 28.0427 4.83706 28.0248C4.83706 28.0033 4.83706 27.9853 4.83706 27.9638C4.83706 27.9207 4.83706 27.8741 4.84423 27.831C4.84423 27.8023 4.85141 27.7772 4.855 27.7485C4.87653 27.5727 4.92318 27.4004 4.99135 27.2354C4.99135 27.2282 4.99853 27.2174 5.00212 27.2102C5.01647 27.1779 5.02365 27.1492 5.038 27.1169L6.95417 23.1052C7.33094 22.3158 7.27712 21.4043 6.81063 20.6651C6.34415 19.9259 5.54396 19.4846 4.66841 19.4846H3.1039H0C0 20.7261 1.00832 21.7345 2.24988 21.7345C2.84913 21.7345 3.39455 21.4976 3.79644 21.1173H3.82874C4.01174 20.9666 4.24498 20.8697 4.49975 20.8697C5.08824 20.8697 5.5619 21.3469 5.5619 21.9318C5.5619 21.9354 5.5619 21.939 5.5619 21.9426C5.57266 22.0969 5.54754 22.2512 5.47578 22.3983L3.55961 26.41C3.00342 27.5691 3.08237 28.9147 3.76774 30.0019C4.44952 31.0856 5.61931 31.7315 6.90034 31.7387C7.06182 32.9444 6.46974 35.2158 3.20796 35.3665L0.724841 42.9988H7.08693L6.38721 40.7418L3.12184 41.3913C3.35867 40.1856 4.6074 36.6511 11.1489 37.3329C11.1489 37.3329 10.6143 32.9659 13.284 30.4182C12.5663 31.9648 13.1333 34.6811 13.1333 34.6811L16.9189 34.8677C15.925 37.0781 12.8893 37.3544 12.8893 37.3544C17.4464 39.1486 13.8437 42.9988 13.8437 42.9988H20.3386L19.6389 40.7418L16.6211 41.341L19.7142 34.6488L14.303 29.6395C16.0254 28.6025 18.6593 28.2006 22.6782 29.2089L23.7726 29.5068V24.5836L21.7093 25.8538L22.244 27.8597L12.8749 23.0837L18.8243 23.8157Z" fill="white"/>
</svg>
