<svg width="264" height="48" viewBox="0 0 264 48" fill="none" xmlns="http://www.w3.org/2000/svg">
<path d="M96.5912 32.2331V32.4016C98.4064 32.542 99.8887 33.1039 100.979 34.0308C102.067 34.9578 102.63 36.1095 102.63 37.5421C102.63 39.3117 101.986 40.66 100.7 41.5589C99.4132 42.4297 97.7603 42.8791 95.7214 42.8791H84.5928V41.1095L86.8023 40.4044V25.41L84.5928 24.7078V22.9381H94.8544C96.8401 22.9381 98.4903 23.3314 99.7488 24.1179C101.007 24.9044 101.651 26.0814 101.651 27.6263C101.651 30.0111 99.9726 31.5589 96.5912 32.2331ZM93.1763 31.5027C95.3886 31.5027 96.5912 30.3791 96.5912 28.2724C96.5912 26.278 95.3886 25.1825 93.1763 25.1825H92.0044V31.5027H93.1763ZM92.0044 33.719V40.6291H93.7105C95.9451 40.6291 97.1478 39.4494 97.1478 37.2022C97.1478 34.9831 95.92 33.719 93.7105 33.719H92.0044Z" fill="white"/>
<path d="M107.026 24.7078V22.9381H116.642V24.7078L114.323 25.41V36.0814C114.323 38.9185 115.831 40.5449 118.376 40.5449C121.064 40.5449 122.823 38.6347 122.795 35.8005L122.686 25.6347L120.138 24.6516V22.9381H127.407V24.6516L125.281 25.6347L125.169 35.8005C125.144 38.2696 124.386 40.1235 122.904 41.3595C121.45 42.5954 119.523 43.2134 117.117 43.2134C114.709 43.2134 112.782 42.5701 111.303 41.2499C109.848 39.9297 109.121 38.0196 109.121 35.5196V25.41L107.026 24.7078Z" fill="white"/>
<path d="M132.43 42.8764V41.1068L134.636 40.4017V25.4073L132.43 24.7051V22.9354H142.551C145.653 22.9354 148.114 23.7781 149.957 25.4354C151.803 27.0899 152.726 29.4804 152.726 32.6236C152.726 35.7978 151.775 38.3259 149.904 40.1517C148.033 41.9776 145.6 42.8764 142.551 42.8764H132.43ZM141.433 40.6292C143.223 40.6292 144.649 39.927 145.681 38.4916C146.716 37.0618 147.247 35.0955 147.247 32.6517C147.247 27.8203 145.038 25.1798 141.433 25.1798H139.839V40.6264H141.433V40.6292Z" fill="white"/>
<path d="M161.256 36.9467L160.082 40.177L162.77 41.1601V42.8736H155.861V41.1601L157.481 40.177L163.997 22.9354H168.335L174.874 40.4017L176.524 41.1068V42.8764H167.102V41.1068L169.311 40.4017L168.025 36.9467H161.256ZM167.186 34.7023L165.647 30.6292L164.643 27.7388H164.473L163.494 30.6573L162.042 34.6995H167.186V34.7023Z" fill="white"/>
<path d="M182.734 25.4073L180.524 24.7051V22.9354H190.87C195.261 22.9354 198.142 24.8427 198.142 28.691C198.142 30.6601 197.44 32.1461 196.044 33.1854C194.674 34.2248 192.856 34.7304 190.59 34.7304H187.933V40.4017L190.979 41.1068V42.8764H180.524V41.1068L182.734 40.4017V25.4073ZM189.08 32.4832C191.566 32.4832 192.8 31.2191 192.8 28.7219C192.8 26.2781 191.709 25.1826 189.357 25.1826H187.93V32.4832H189.08Z" fill="white"/>
<path d="M202.412 41.1068L204.619 40.4045V25.4073L202.412 24.7079V22.9354H219.327V29.1152H217.481L215.666 25.1826H209.821V31.6995L215.75 31.0506V34.4804L209.821 33.8343V40.6292H216.086L218.044 36.4439H219.89V42.8764H202.412V41.1068Z" fill="white"/>
<path d="M225.926 36.556H227.797L230.062 40.851C231.626 41.2723 232.943 41.2161 234.034 40.7133C235.125 40.2077 235.684 39.4465 235.684 38.41C235.653 36.4437 233.251 35.7695 230.789 34.6459C229.114 33.8341 227.632 33.0729 226.653 31.3875C226.177 30.5476 225.926 29.5616 225.926 28.4689C225.926 26.615 226.622 25.1824 227.993 24.1431C229.391 23.1038 231.128 22.5981 233.195 22.5981C235.572 22.5981 237.698 23.0195 239.6 23.8875V28.5223H237.756L235.631 24.8425C232.753 24.1712 230.876 25.2105 230.876 27.1206C230.876 29.3931 234.453 30.2639 237.225 31.6684C239.155 32.5925 240.721 34.4493 240.721 37.0307C240.721 38.9689 239.91 40.483 238.288 41.5813C236.694 42.6768 234.652 43.2077 232.193 43.2077C230.152 43.2077 228.085 42.674 225.931 41.6347V36.556H225.926Z" fill="white"/>
<path d="M263.8 22.9354V29.1152H261.954L260.136 25.1826H257.144V40.4017L259.913 41.1068V42.8764H249.176V41.1068L251.945 40.4017V25.1826H248.952L247.134 29.1152H245.288V22.9354H263.8Z" fill="white"/>
<path d="M27.5096 28.8623L30.4351 30.0449C31.7832 30.5898 33.2711 30.5898 34.6192 30.0477L34.6276 30.0449C36.5127 29.2837 38.5907 29.2837 40.4786 30.0449C41.8322 30.5898 43.3202 30.5898 44.671 30.0449L47.5993 28.8623V18.132H27.5068V28.8623H27.5096ZM33.6375 24.0477H36.5686V20.146L37.5559 19.1572L38.5404 20.146V24.0477H41.4714L42.4811 27.9494H40.5121H38.5432H38.4341V26.1095C38.4341 25.6235 38.0425 25.2303 37.5587 25.2303C37.0748 25.2303 36.6833 25.6235 36.6833 26.1095V27.9494H36.6133H36.5714H34.6024H32.6306L33.6375 24.0477Z" fill="white"/>
<path d="M47.5995 31.1545L44.6712 32.3371C43.3203 32.8821 41.8324 32.8821 40.4788 32.3371C38.5937 31.5759 36.5128 31.5759 34.6278 32.3371L34.6194 32.3399C33.2685 32.8821 31.7834 32.8821 30.4353 32.3371L27.507 31.1545V37.0618C27.507 37.0618 27.3336 43.3287 37.5533 48.0001C47.7729 43.3315 47.5995 37.0618 47.5995 37.0618V31.1545ZM42.4813 43.0057H40.5123H40.4032V41.0169C40.4032 40.8175 40.3109 40.6265 40.1487 40.5085C39.4327 39.9776 38.6524 40.4804 38.6524 41.1658V43.0057H38.5405H36.5716H36.4625V41.0169C36.4625 40.8175 36.3702 40.6265 36.208 40.5085C35.4892 39.9776 34.7089 40.4804 34.7089 41.1658V43.0057H34.5998H32.6308V36.5197L33.6153 35.5281L34.6026 36.5197V39.104H36.5716V35.2023L37.5589 34.2135L38.5433 35.2023V39.104H40.5151V36.5197L41.4968 35.5281L42.4841 36.5197V43.0057H42.4813Z" fill="white"/>
<path d="M38.3337 4.88765L37.682 2.78933L39.0161 2.37079L38.6525 1.20506L37.3184 1.6236L36.8122 0L35.6515 0.365174L36.1577 1.98877L34.8236 2.40731L35.1872 3.57304L36.5213 3.1545L37.0583 4.87922C32.5274 5.01125 28.7237 6.86798 27.5127 9.35674V13.0871H29.1936V14.7725H27.5127V16.2332H47.6052V14.7725H45.9271V13.0871H47.6052V9.35674V9.34552C46.4109 6.89888 42.7555 5.07585 38.3337 4.88765ZM34.007 14.7725H32.3261V13.0871H34.007V14.7725ZM35.5536 11.6264H35.5312L33.1679 9.25281L30.8549 11.5759C30.8521 10.5674 30.234 9.70225 29.3558 9.3427C30.4018 8.06742 32.6001 6.90169 35.5536 6.52529V11.6264ZM37.5561 15.0618C36.9324 15.0618 36.429 14.5534 36.429 13.9298C36.429 13.3062 36.9352 12.7978 37.5561 12.7978C38.177 12.7978 38.6833 13.3062 38.6833 13.9298C38.6833 14.5534 38.177 15.0618 37.5561 15.0618ZM42.7834 14.7725H41.1025V13.0871H42.7834V14.7725ZM44.2546 11.5759L41.9416 9.25562L39.5783 11.6292H39.5559V6.52529C42.5177 6.89607 44.73 8.059 45.7816 9.33428C44.8894 9.68259 44.2574 10.5534 44.2546 11.5759Z" fill="#D2B47D"/>
<path d="M71.8399 36.7388C72.5866 36.7388 73.3138 36.4719 73.8928 35.9775C74.5976 35.3736 75.0003 34.4944 75.0003 33.5646V33.4017C75.0003 32.4017 74.5053 31.4719 73.6746 30.9157C72.8467 30.3623 71.8007 30.2584 70.8806 30.6461L65.8295 32.764C65.3708 31.9944 64.7583 29.868 64.5345 29.0562C64.8897 28.9185 65.2282 28.7472 65.5414 28.5421L66.4839 29.6348C67.2363 30.5056 68.5983 30.4522 69.2836 29.5281L66.649 27.5646C66.8839 27.2921 67.0908 26.9972 67.267 26.6798L70.6316 27.5506C71.9322 28.0056 73.3194 27.1376 73.4816 25.764L67.832 25.1376C67.8963 24.8034 67.9327 24.4578 67.9327 24.1039C67.9327 24.0758 67.9299 24.0449 67.9299 24.0168L72.0944 23.1573C73.7501 22.7387 74.592 20.8876 73.8284 19.3567L67.5971 22.25C67.4684 21.9017 67.3034 21.5702 67.1076 21.2612L70.8806 17.3652C72.3937 15.9298 72.1951 13.4578 70.4722 12.2837L63.6535 22.5112C63.7151 22.5505 63.7738 22.5927 63.8297 22.6404C63.8493 22.6573 63.8689 22.6741 63.8885 22.691C63.922 22.7219 63.9556 22.7528 63.9892 22.7837C64.0115 22.8062 64.0339 22.8315 64.0563 22.8567C64.0814 22.8848 64.1066 22.9157 64.1318 22.9466C64.1542 22.9747 64.1765 23.0056 64.1961 23.0365C64.2157 23.0646 64.2325 23.0927 64.2493 23.1208C64.2716 23.1545 64.294 23.191 64.3108 23.2303C64.322 23.2528 64.3332 23.2781 64.3443 23.3005C64.3639 23.3427 64.3863 23.3876 64.4031 23.4326C64.4059 23.441 64.4087 23.4522 64.4143 23.4607C64.459 23.5814 64.4898 23.705 64.5094 23.8371C64.5122 23.8483 64.5122 23.8623 64.515 23.8736C64.5261 23.9522 64.5317 24.0281 64.5317 24.1095C64.5317 24.2191 64.5178 24.323 64.501 24.4241C64.4954 24.455 64.4926 24.4831 64.487 24.514C64.4674 24.6095 64.4367 24.6994 64.4031 24.7893C64.3891 24.8258 64.3751 24.8595 64.3583 24.8961C64.322 24.9719 64.2828 25.0449 64.2381 25.118C64.2129 25.1573 64.1877 25.191 64.1626 25.2275C64.1234 25.2809 64.0814 25.3314 64.0395 25.3792C64.0115 25.4101 63.9864 25.441 63.9556 25.4691C63.8801 25.5421 63.799 25.6123 63.7123 25.6713C63.6983 25.6798 63.6843 25.6882 63.6675 25.6966C63.5892 25.7472 63.5081 25.7921 63.4214 25.8286C63.3906 25.8427 63.3571 25.8539 63.3235 25.868C63.248 25.8961 63.1725 25.9213 63.0942 25.941C63.0606 25.9494 63.027 25.9579 62.9935 25.9635C62.8816 25.9831 62.7669 25.9972 62.6523 25.9972C62.5851 25.9972 62.5208 25.9944 62.4565 25.9859C62.4481 25.9859 62.4397 25.9831 62.4313 25.9831C62.3754 25.9775 62.3194 25.9691 62.2635 25.955C62.2607 25.955 62.2579 25.9522 62.2551 25.9522C62.1069 25.9185 61.9642 25.868 61.83 25.8034C61.8104 25.7949 61.7908 25.7837 61.7713 25.7753C61.7097 25.7416 61.6482 25.705 61.5895 25.6657C61.5447 25.6348 61.5028 25.6039 61.4608 25.5674C61.458 25.5646 61.4552 25.5618 61.4496 25.559C61.3797 25.5 61.3154 25.4382 61.2566 25.3708C61.2371 25.3483 61.2147 25.3258 61.1951 25.3005C61.1923 25.2977 61.1895 25.2949 61.1895 25.2921C60.9294 24.9691 60.7728 24.5562 60.7728 24.1067C60.7728 24.0253 60.7812 23.9438 60.7896 23.8652C60.7896 23.8623 60.7896 23.8595 60.7896 23.8567C60.7896 23.8483 60.7952 23.8371 60.7952 23.8286C60.8147 23.7022 60.8455 23.5786 60.8875 23.4607C61.1084 22.7753 61.623 21.9298 62.0985 21.2078C62.3334 20.8989 62.6243 20.4944 62.9236 20.0337L62.9264 20.0309C64.0367 18.3258 65.2477 15.8539 64.0395 14.5449L66.0001 12.2865L58.8542 12.9635C57.5592 13.1376 56.5244 14.4326 56.1244 15.6994H59.3436C60.0792 15.6994 60.784 15.9887 61.307 16.5028L61.6985 16.8848H56.9719L57.4753 17.2556C58.2808 17.8455 59.2485 18.1629 60.2442 18.1629H61.8915C60.2638 19.1208 56.9271 20.2781 55.5595 22.5477L50.7965 22.1432L51.5069 19.6601L49.2666 18.2753V23.2331L54.8659 25.9859L59.0751 25.4354L50.9195 30.4185L51.5069 28.2107L49.2666 26.8258V31.4298V32.1994L50.4357 31.8792C54.8463 30.7668 57.797 31.2163 59.7687 32.3624L54.038 37.8202L57.2879 45.1039L54.0576 44.4579L53.2968 46.9213H60.2833C60.2833 46.9213 56.3706 42.7219 61.3182 40.764C61.3182 40.764 58.0179 40.4607 56.9383 38.0506L61.3182 37.8989C61.3182 37.8989 61.7685 34.8932 60.9126 33.1938C64.0227 35.9747 63.7095 40.7388 63.7095 40.7388C70.7967 39.9944 71.7336 43.8286 71.9294 45.1545L68.4445 44.4579L67.6838 46.9213H74.5165L71.8231 38.5955C68.8053 38.691 67.7173 37.3539 67.4097 36.0871L71.3476 36.7107C71.5126 36.7247 71.6777 36.7388 71.8399 36.7388ZM66.9902 34.205L71.5658 32.2865C71.9434 32.1292 72.3545 32.1685 72.6929 32.3961C73.0313 32.6236 73.2271 32.9888 73.2271 33.3989V33.5618C73.2271 33.9691 73.0509 34.3539 72.7405 34.6208C72.4328 34.8848 72.0273 35.0028 71.6245 34.9382L66.9902 34.205Z" fill="#D2B47D"/>
<path d="M20.4393 25.9802L25.8092 23.3875V18.2696L23.569 19.6544L24.257 22.0533L19.1164 22.7022C17.662 19.6628 15.3574 18.2808 15.3574 18.2808L18.8954 18.2415L19.2982 16.8791H16.3699L16.8202 15.6909H19.4268L19.8995 13.6937C19.7904 13.7021 19.4296 13.7106 19.3206 13.7106C17.911 13.7106 16.6356 13.1375 15.7126 12.2106H10.5161L11.6768 13.5842L9.36661 17.2668H11.0923L9.62951 20.7471H11.3216L10.7762 24.7836L12.4879 24.9943L9.60714 31.3904C9.57637 31.4746 9.54001 31.5561 9.49806 31.6347L9.49527 31.6404C9.11489 32.351 8.37094 32.8342 7.5151 32.837C7.50951 32.837 7.50392 32.8398 7.49832 32.8398C7.43679 32.8398 7.37526 32.8314 7.31373 32.8258C7.29695 32.8229 7.28017 32.8229 7.26339 32.8229C7.21304 32.8173 7.1655 32.8089 7.11516 32.8005C7.076 32.7949 7.03405 32.7864 6.99489 32.778C6.95574 32.7696 6.91658 32.7583 6.88022 32.7471C6.82708 32.7331 6.77674 32.7134 6.7264 32.6965C6.69843 32.6853 6.67325 32.6769 6.64529 32.6685C6.56698 32.6347 6.49146 32.601 6.41595 32.5589C6.40756 32.5533 6.39637 32.5477 6.38798 32.542C6.32085 32.5027 6.25653 32.4606 6.1922 32.4156C6.17822 32.4044 6.16423 32.3932 6.15025 32.3847C6.08872 32.337 6.02719 32.2864 5.96845 32.2331C5.96286 32.2274 5.95726 32.2218 5.95167 32.219C5.61325 31.896 5.37273 31.4718 5.28323 30.9943C5.28043 30.9746 5.27763 30.955 5.27484 30.9353C5.26645 30.8735 5.25806 30.8145 5.25246 30.7527C5.24966 30.7134 5.24687 30.6713 5.24687 30.6319C5.24687 30.6123 5.24407 30.5954 5.24407 30.5758C5.24407 30.5533 5.24687 30.5308 5.24687 30.5083C5.24687 30.4606 5.24966 30.41 5.25526 30.3623C5.25805 30.3314 5.26365 30.3033 5.26645 30.2724C5.29162 30.0814 5.34196 29.8932 5.41468 29.7106C5.41747 29.7022 5.42307 29.6909 5.42587 29.6825C5.43985 29.6488 5.45104 29.6151 5.46782 29.5814L7.55146 25.205C7.9598 24.3454 7.90386 23.3482 7.39764 22.542C6.89141 21.7359 6.02159 21.2527 5.07067 21.2527H3.37019H0C0 22.6095 1.09356 23.7078 2.44444 23.7078C3.0961 23.7078 3.68623 23.4493 4.12534 23.0336H4.1589C4.35747 22.8679 4.60919 22.7639 4.88887 22.7639C5.52655 22.7639 6.04397 23.2836 6.04397 23.9241C6.04397 23.9297 6.04397 23.9325 6.04117 23.9381C6.05515 24.1066 6.02439 24.2752 5.94887 24.4353L3.86523 28.8117C3.26111 30.0786 3.34781 31.542 4.09177 32.7302C4.83294 33.9128 6.1055 34.6207 7.49553 34.6263C7.67173 35.9409 7.02845 38.4213 3.48486 38.5842L0.785911 46.91H7.68851L6.92777 44.4465L3.38138 45.1544C3.63589 43.8398 4.99236 39.9831 12.0991 40.7274C12.0991 40.7274 11.5174 35.9634 14.4177 33.1825C13.6374 34.8707 14.2527 37.8342 14.2527 37.8342L18.364 38.0392C17.2845 40.4522 13.9842 40.7527 13.9842 40.7527C18.9346 42.7106 15.019 46.91 15.019 46.91H22.0726L21.3119 44.4465L18.0368 45.101L21.3986 37.8005L15.5252 32.337C17.3935 31.205 20.2575 30.7668 24.6206 31.8651L25.8092 32.1909V26.8201L23.569 28.205L24.1507 30.3932L13.973 25.1825L20.4393 25.9802Z" fill="#D2B47D"/>
</svg>
