<svg width="535" height="48" viewBox="0 0 535 48" fill="none" xmlns="http://www.w3.org/2000/svg">
<g clip-path="url(#clip0_311_619)">
<path d="M179.638 36V15.2H187.126C188.214 15.2 189.238 15.2853 190.198 15.456C191.158 15.6053 191.99 15.872 192.694 16.256C193.398 16.64 193.952 17.1733 194.358 17.856C194.784 18.5173 194.998 19.36 194.998 20.384C194.998 20.832 194.934 21.2907 194.806 21.76C194.678 22.208 194.496 22.6453 194.262 23.072C194.048 23.4773 193.782 23.84 193.462 24.16C193.142 24.48 192.779 24.7147 192.374 24.864V24.992C193.376 25.2907 194.219 25.8347 194.902 26.624C195.606 27.392 195.958 28.4693 195.958 29.856C195.958 30.9227 195.734 31.8507 195.286 32.64C194.859 33.408 194.272 34.048 193.526 34.56C192.8 35.0507 191.936 35.4133 190.934 35.648C189.931 35.8827 188.875 36 187.766 36H179.638ZM185.142 23.328H186.998C187.894 23.328 188.555 23.136 188.982 22.752C189.408 22.368 189.622 21.856 189.622 21.216C189.622 20.576 189.408 20.1173 188.982 19.84C188.555 19.5627 187.894 19.424 186.998 19.424H185.142V23.328ZM185.142 31.776H187.382C189.515 31.776 190.582 31.008 190.582 29.472C190.582 28.704 190.315 28.16 189.782 27.84C189.27 27.52 188.47 27.36 187.382 27.36H185.142V31.776Z" fill="white"/>
<path d="M207.743 36.384C204.821 36.384 202.645 35.5413 201.215 33.856C199.807 32.1493 199.103 29.5147 199.103 25.952V15.2H204.607V26.592C204.607 28.448 204.853 29.76 205.343 30.528C205.855 31.2747 206.655 31.648 207.743 31.648C208.831 31.648 209.631 31.2747 210.143 30.528C210.677 29.76 210.943 28.448 210.943 26.592V15.2H216.255V25.952C216.255 29.5147 215.562 32.1493 214.175 33.856C212.789 35.5413 210.645 36.384 207.743 36.384Z" fill="white"/>
<path d="M220.731 36V15.2H226.875C228.454 15.2 229.894 15.392 231.195 15.776C232.518 16.16 233.649 16.768 234.587 17.6C235.526 18.432 236.251 19.4987 236.763 20.8C237.297 22.1013 237.563 23.6693 237.563 25.504C237.563 27.3387 237.307 28.9173 236.795 30.24C236.283 31.5627 235.558 32.6507 234.619 33.504C233.702 34.3573 232.603 34.9867 231.323 35.392C230.065 35.7973 228.689 36 227.195 36H220.731ZM226.235 31.584H226.555C227.302 31.584 228.006 31.4987 228.667 31.328C229.329 31.136 229.894 30.816 230.363 30.368C230.854 29.92 231.238 29.3013 231.515 28.512C231.793 27.7227 231.931 26.72 231.931 25.504C231.931 24.288 231.793 23.296 231.515 22.528C231.238 21.76 230.854 21.1627 230.363 20.736C229.894 20.3093 229.329 20.0213 228.667 19.872C228.006 19.7013 227.302 19.616 226.555 19.616H226.235V31.584Z" fill="white"/>
<path d="M246.326 25.888L245.974 27.328H249.814L249.462 25.888C249.206 24.8853 248.95 23.7973 248.694 22.624C248.438 21.4507 248.182 20.3413 247.926 19.296H247.798C247.564 20.3627 247.318 21.4827 247.062 22.656C246.828 23.808 246.582 24.8853 246.326 25.888ZM238.326 36L244.662 15.2H251.318L257.654 36H251.83L250.806 31.584H244.982L243.958 36H238.326Z" fill="white"/>
<path d="M259.638 36V15.2H267.254C268.384 15.2 269.462 15.3173 270.486 15.552C271.51 15.7653 272.406 16.1493 273.174 16.704C273.942 17.2373 274.55 17.952 274.998 18.848C275.467 19.7227 275.702 20.8107 275.702 22.112C275.702 23.392 275.467 24.4907 274.998 25.408C274.55 26.3253 273.942 27.0827 273.174 27.68C272.406 28.256 271.52 28.6933 270.518 28.992C269.515 29.2693 268.47 29.408 267.382 29.408H265.142V36H259.638ZM265.142 25.056H267.126C268.214 25.056 269.014 24.8 269.526 24.288C270.059 23.776 270.326 23.0507 270.326 22.112C270.326 21.1733 270.038 20.512 269.462 20.128C268.886 19.744 268.064 19.552 266.998 19.552H265.142V25.056Z" fill="white"/>
<path d="M279.106 36V15.2H292.546V19.808H284.61V23.072H291.394V27.68H284.61V31.392H292.866V36H279.106Z" fill="white"/>
<path d="M303.48 36.384C302.157 36.384 300.792 36.1493 299.384 35.68C297.997 35.1893 296.738 34.432 295.608 33.408L298.744 29.632C299.49 30.2293 300.29 30.72 301.144 31.104C302.018 31.4667 302.84 31.648 303.608 31.648C304.44 31.648 305.037 31.52 305.4 31.264C305.784 31.008 305.976 30.6453 305.976 30.176C305.976 29.92 305.912 29.7067 305.784 29.536C305.656 29.3653 305.464 29.2053 305.208 29.056C304.973 28.9067 304.685 28.768 304.344 28.64C304.002 28.4907 303.608 28.3307 303.16 28.16L300.568 27.072C300.013 26.8587 299.48 26.5813 298.968 26.24C298.456 25.8773 298.008 25.4613 297.624 24.992C297.24 24.5013 296.93 23.9467 296.696 23.328C296.482 22.7093 296.376 22.0267 296.376 21.28C296.376 20.384 296.568 19.552 296.952 18.784C297.336 17.9947 297.869 17.312 298.552 16.736C299.234 16.1387 300.045 15.6693 300.984 15.328C301.944 14.9867 302.989 14.816 304.12 14.816C305.314 14.816 306.52 15.04 307.736 15.488C308.973 15.936 310.072 16.64 311.032 17.6L308.28 21.056C307.576 20.5653 306.893 20.192 306.232 19.936C305.592 19.68 304.888 19.552 304.12 19.552C303.437 19.552 302.904 19.6693 302.52 19.904C302.136 20.1387 301.944 20.4907 301.944 20.96C301.944 21.4507 302.21 21.8347 302.744 22.112C303.298 22.368 304.056 22.6773 305.016 23.04L307.544 24.032C308.845 24.544 309.848 25.2587 310.552 26.176C311.256 27.0933 311.608 28.2773 311.608 29.728C311.608 30.6027 311.426 31.4453 311.064 32.256C310.701 33.0667 310.168 33.7813 309.464 34.4C308.781 34.9973 307.938 35.4773 306.936 35.84C305.933 36.2027 304.781 36.384 303.48 36.384Z" fill="white"/>
<path d="M318.293 36V19.808H312.789V15.2H329.301V19.808H323.797V36H318.293Z" fill="white"/>
<path d="M332.388 36V15.2H337.892V36H332.388Z" fill="white"/>
<path d="M348.919 36V15.2H354.423V31.392H362.295V36H348.919Z" fill="white"/>
<path d="M370.951 25.888L370.599 27.328H374.439L374.087 25.888C373.831 24.8853 373.575 23.7973 373.319 22.624C373.063 21.4507 372.807 20.3413 372.551 19.296H372.423C372.189 20.3627 371.943 21.4827 371.687 22.656C371.453 23.808 371.207 24.8853 370.951 25.888ZM362.951 36L369.287 15.2H375.943L382.279 36H376.455L375.431 31.584H369.607L368.583 36H362.951Z" fill="white"/>
<path d="M384.263 36V15.2H389.767V22.944H389.895L395.143 15.2H401.159L394.951 23.648L402.375 36H396.359L391.751 28L389.767 30.816V36H384.263Z" fill="white"/>
<path d="M412.156 36.384C410.705 36.384 409.382 36.1387 408.188 35.648C407.014 35.1573 406.001 34.4533 405.148 33.536C404.316 32.5973 403.665 31.456 403.196 30.112C402.726 28.7467 402.492 27.2107 402.492 25.504C402.492 23.7973 402.726 22.2827 403.196 20.96C403.665 19.616 404.316 18.496 405.148 17.6C406.001 16.6827 407.014 15.9893 408.188 15.52C409.382 15.0507 410.705 14.816 412.156 14.816C413.585 14.816 414.897 15.0507 416.092 15.52C417.286 15.9893 418.3 16.6827 419.132 17.6C419.985 18.5173 420.646 19.6373 421.116 20.96C421.585 22.2827 421.82 23.7973 421.82 25.504C421.82 27.2107 421.585 28.7467 421.116 30.112C420.646 31.456 419.985 32.5973 419.132 33.536C418.3 34.4533 417.286 35.1573 416.092 35.648C414.897 36.1387 413.585 36.384 412.156 36.384ZM412.156 31.648C413.414 31.648 414.396 31.104 415.1 30.016C415.825 28.9067 416.188 27.4027 416.188 25.504C416.188 23.6053 415.825 22.144 415.1 21.12C414.396 20.0747 413.414 19.552 412.156 19.552C410.897 19.552 409.905 20.0747 409.18 21.12C408.476 22.144 408.124 23.6053 408.124 25.504C408.124 27.4027 408.476 28.9067 409.18 30.016C409.905 31.104 410.897 31.648 412.156 31.648ZM411.9 14.432L409.468 11.68L415.292 7.072L418.172 10.592L411.9 14.432Z" fill="white"/>
<path d="M435.144 36.384C433.693 36.384 432.328 36.1707 431.048 35.744C429.768 35.296 428.648 34.6347 427.688 33.76C426.749 32.864 426.003 31.7547 425.448 30.432C424.915 29.088 424.648 27.5307 424.648 25.76C424.648 24.0107 424.925 22.464 425.48 21.12C426.035 19.7547 426.781 18.6133 427.72 17.696C428.68 16.7573 429.789 16.0427 431.048 15.552C432.307 15.0613 433.629 14.816 435.016 14.816C436.552 14.816 437.875 15.0933 438.984 15.648C440.115 16.1813 441.053 16.8213 441.8 17.568L438.92 21.088C438.408 20.64 437.864 20.2773 437.288 20C436.733 19.7013 436.04 19.552 435.208 19.552C434.504 19.552 433.853 19.6907 433.256 19.968C432.659 20.2453 432.136 20.64 431.688 21.152C431.24 21.664 430.888 22.2933 430.632 23.04C430.397 23.7867 430.28 24.6293 430.28 25.568C430.28 27.5307 430.717 29.0347 431.592 30.08C432.467 31.1253 433.843 31.648 435.72 31.648C436.019 31.648 436.307 31.616 436.584 31.552C436.883 31.488 437.128 31.392 437.32 31.264V28.384H434.248V23.904H442.184V33.824C441.437 34.528 440.445 35.136 439.208 35.648C437.971 36.1387 436.616 36.384 435.144 36.384Z" fill="white"/>
<path d="M449.879 36V28.832L443.607 15.2H449.495L451.031 19.552C451.287 20.3413 451.543 21.1093 451.799 21.856C452.055 22.6027 452.322 23.3813 452.599 24.192H452.727C453.005 23.3813 453.271 22.6027 453.527 21.856C453.805 21.1093 454.082 20.3413 454.359 19.552L455.895 15.2H461.655L455.383 28.832V36H449.879Z" fill="white"/>
<path d="M471.837 36.384C468.915 36.384 466.739 35.5413 465.309 33.856C463.901 32.1493 463.197 29.5147 463.197 25.952V15.2H468.701V26.592C468.701 28.448 468.947 29.76 469.437 30.528C469.949 31.2747 470.749 31.648 471.837 31.648C472.925 31.648 473.725 31.2747 474.237 30.528C474.771 29.76 475.037 28.448 475.037 26.592V15.2H480.349V25.952C480.349 29.5147 479.656 32.1493 478.269 33.856C476.883 35.5413 474.739 36.384 471.837 36.384ZM467.037 12.64L470.365 7.392L473.821 9.312L469.725 13.92L467.037 12.64ZM473.373 12.64L476.701 7.392L480.157 9.312L476.061 13.92L473.373 12.64Z" fill="white"/>
<path d="M484.825 36V15.2H490.329V31.392H498.201V36H484.825Z" fill="white"/>
<path d="M501.794 36V15.2H515.234V19.808H507.298V23.072H514.082V27.68H507.298V31.392H515.554V36H501.794ZM508.514 14.432L506.082 11.68L511.906 7.072L514.786 10.592L508.514 14.432Z" fill="white"/>
<path d="M526.167 36.384C524.845 36.384 523.479 36.1493 522.071 35.68C520.685 35.1893 519.426 34.432 518.295 33.408L521.431 29.632C522.178 30.2293 522.978 30.72 523.831 31.104C524.706 31.4667 525.527 31.648 526.295 31.648C527.127 31.648 527.725 31.52 528.087 31.264C528.471 31.008 528.663 30.6453 528.663 30.176C528.663 29.92 528.599 29.7067 528.471 29.536C528.343 29.3653 528.151 29.2053 527.895 29.056C527.66 28.9067 527.373 28.768 527.031 28.64C526.69 28.4907 526.295 28.3307 525.847 28.16L523.255 27.072C522.701 26.8587 522.167 26.5813 521.655 26.24C521.143 25.8773 520.695 25.4613 520.311 24.992C519.927 24.5013 519.618 23.9467 519.383 23.328C519.17 22.7093 519.063 22.0267 519.063 21.28C519.063 20.384 519.255 19.552 519.639 18.784C520.023 17.9947 520.557 17.312 521.239 16.736C521.922 16.1387 522.732 15.6693 523.671 15.328C524.631 14.9867 525.677 14.816 526.807 14.816C528.002 14.816 529.207 15.04 530.423 15.488C531.661 15.936 532.759 16.64 533.719 17.6L530.967 21.056C530.263 20.5653 529.581 20.192 528.919 19.936C528.279 19.68 527.575 19.552 526.807 19.552C526.125 19.552 525.591 19.6693 525.207 19.904C524.823 20.1387 524.631 20.4907 524.631 20.96C524.631 21.4507 524.898 21.8347 525.431 22.112C525.986 22.368 526.743 22.6773 527.703 23.04L530.231 24.032C531.533 24.544 532.535 25.2587 533.239 26.176C533.943 27.0933 534.295 28.2773 534.295 29.728C534.295 30.6027 534.114 31.4453 533.751 32.256C533.389 33.0667 532.855 33.7813 532.151 34.4C531.469 34.9973 530.626 35.4773 529.623 35.84C528.621 36.2027 527.469 36.384 526.167 36.384Z" fill="white"/>
<path d="M165.731 24.1952L148.965 14.5937L155.77 23.2135C156.422 24.0398 155.902 25.2642 154.856 25.3665L150.315 25.8214L151.137 32.6785C151.217 33.3267 150.815 33.9332 150.19 34.1189L131.514 39.6115L139.788 47.6247C140.285 48.1061 141.073 48.1289 141.593 47.6702L144.777 44.8842L155.732 44.7098C155.929 44.7098 156.024 44.4672 155.883 44.3269L150.914 39.5129L165.947 26.3596C166.637 25.7569 166.527 24.6539 165.731 24.199" fill="#0EA6CE"/>
<path d="M154.856 25.3703C155.903 25.2642 156.426 24.0436 155.77 23.2135L148.966 14.5937L150.315 25.8214L154.856 25.3665V25.3703Z" fill="#BFE0D6"/>
<path d="M151.138 32.6785L150.316 25.8214L120.37 28.8159L131.514 39.6077L150.191 34.1151C150.816 33.9332 151.214 33.3229 151.138 32.6747" fill="#F2E9BF"/>
<path d="M148.966 14.5975L120.37 28.8159L150.316 25.8214L148.966 14.5975H148.962H148.966Z" fill="white"/>
<path d="M123.065 20.3099L148.962 14.5975L144.14 8.49088L146.722 1.07273C146.786 0.886994 146.593 0.712628 146.415 0.799811L140.372 3.72234L137.837 0.511727C137.488 0.0682305 136.9 -0.106136 136.366 0.0720211L114.305 7.42573C113.691 7.63042 113.312 8.24828 113.41 8.88889L116.234 27.9555C116.34 28.6605 116.977 29.1571 117.69 29.0888L120.373 28.8197L122.056 21.3258C122.17 20.8216 122.564 20.4274 123.072 20.3137" fill="#E5332A"/>
<path d="M119.407 33.4404L112.11 37.7313C111.94 37.8299 111.974 38.0877 112.167 38.1369L118.107 39.6797L117.701 41.628C117.497 42.6174 118.418 43.4665 119.384 43.1822L131.514 39.6153L120.37 28.8235L119.407 33.448V33.4404Z" fill="#FFD200"/>
<path d="M148.966 14.5975L123.065 20.3099C122.561 20.4198 122.163 20.814 122.049 21.322L120.366 28.8159L148.966 14.5975Z" fill="#F27A4D"/>
</g>
<rect x="93" width="1" height="48" fill="white"/>
<path d="M27.5096 28.8623L30.4351 30.0449C31.7832 30.5898 33.2711 30.5898 34.6192 30.0477L34.6276 30.0449C36.5127 29.2837 38.5907 29.2837 40.4786 30.0449C41.8322 30.5898 43.3202 30.5898 44.671 30.0449L47.5993 28.8623V18.132H27.5068V28.8623H27.5096ZM33.6375 24.0477H36.5686V20.146L37.5559 19.1572L38.5404 20.146V24.0477H41.4714L42.4811 27.9494H40.5121H38.5432H38.4341V26.1095C38.4341 25.6235 38.0425 25.2303 37.5587 25.2303C37.0748 25.2303 36.6833 25.6235 36.6833 26.1095V27.9494H36.6133H36.5714H34.6024H32.6306L33.6375 24.0477Z" fill="white"/>
<path d="M47.5995 31.1545L44.6712 32.3371C43.3203 32.8821 41.8324 32.8821 40.4788 32.3371C38.5937 31.5759 36.5128 31.5759 34.6278 32.3371L34.6194 32.3399C33.2685 32.8821 31.7834 32.8821 30.4353 32.3371L27.507 31.1545V37.0618C27.507 37.0618 27.3336 43.3287 37.5533 48.0001C47.7729 43.3315 47.5995 37.0618 47.5995 37.0618V31.1545ZM42.4813 43.0057H40.5123H40.4032V41.0169C40.4032 40.8175 40.3109 40.6265 40.1487 40.5085C39.4327 39.9776 38.6524 40.4804 38.6524 41.1658V43.0057H38.5405H36.5716H36.4625V41.0169C36.4625 40.8175 36.3702 40.6265 36.208 40.5085C35.4892 39.9776 34.7089 40.4804 34.7089 41.1658V43.0057H34.5998H32.6308V36.5197L33.6153 35.5281L34.6026 36.5197V39.104H36.5716V35.2023L37.5589 34.2135L38.5433 35.2023V39.104H40.5151V36.5197L41.4968 35.5281L42.4841 36.5197V43.0057H42.4813Z" fill="white"/>
<path d="M38.3337 4.88765L37.682 2.78933L39.0161 2.37079L38.6525 1.20506L37.3184 1.6236L36.8122 0L35.6515 0.365174L36.1577 1.98877L34.8236 2.40731L35.1872 3.57304L36.5213 3.1545L37.0583 4.87922C32.5274 5.01125 28.7237 6.86798 27.5127 9.35674V13.0871H29.1936V14.7725H27.5127V16.2332H47.6052V14.7725H45.9271V13.0871H47.6052V9.35674V9.34552C46.4109 6.89888 42.7555 5.07585 38.3337 4.88765ZM34.007 14.7725H32.3261V13.0871H34.007V14.7725ZM35.5536 11.6264H35.5312L33.1679 9.25281L30.8549 11.5759C30.8521 10.5674 30.234 9.70225 29.3558 9.3427C30.4018 8.06742 32.6001 6.90169 35.5536 6.52529V11.6264ZM37.5561 15.0618C36.9324 15.0618 36.429 14.5534 36.429 13.9298C36.429 13.3062 36.9352 12.7978 37.5561 12.7978C38.177 12.7978 38.6833 13.3062 38.6833 13.9298C38.6833 14.5534 38.177 15.0618 37.5561 15.0618ZM42.7834 14.7725H41.1025V13.0871H42.7834V14.7725ZM44.2546 11.5759L41.9416 9.25562L39.5783 11.6292H39.5559V6.52529C42.5177 6.89607 44.73 8.059 45.7816 9.33428C44.8894 9.68259 44.2574 10.5534 44.2546 11.5759Z" fill="white"/>
<path d="M71.8399 36.7388C72.5866 36.7388 73.3138 36.4719 73.8928 35.9775C74.5976 35.3736 75.0003 34.4944 75.0003 33.5646V33.4017C75.0003 32.4017 74.5053 31.4719 73.6746 30.9157C72.8467 30.3623 71.8007 30.2584 70.8806 30.6461L65.8295 32.764C65.3708 31.9944 64.7583 29.868 64.5345 29.0562C64.8897 28.9185 65.2282 28.7472 65.5414 28.5421L66.4839 29.6348C67.2363 30.5056 68.5983 30.4522 69.2836 29.5281L66.649 27.5646C66.8839 27.2921 67.0908 26.9972 67.267 26.6798L70.6316 27.5506C71.9322 28.0056 73.3194 27.1376 73.4816 25.764L67.832 25.1376C67.8963 24.8034 67.9327 24.4578 67.9327 24.1039C67.9327 24.0758 67.9299 24.0449 67.9299 24.0168L72.0944 23.1573C73.7501 22.7387 74.592 20.8876 73.8284 19.3567L67.5971 22.25C67.4684 21.9017 67.3034 21.5702 67.1076 21.2612L70.8806 17.3652C72.3937 15.9298 72.1951 13.4578 70.4722 12.2837L63.6535 22.5112C63.7151 22.5505 63.7738 22.5927 63.8297 22.6404C63.8493 22.6573 63.8689 22.6741 63.8885 22.691C63.922 22.7219 63.9556 22.7528 63.9892 22.7837C64.0115 22.8062 64.0339 22.8315 64.0563 22.8567C64.0814 22.8848 64.1066 22.9157 64.1318 22.9466C64.1542 22.9747 64.1765 23.0056 64.1961 23.0365C64.2157 23.0646 64.2325 23.0927 64.2493 23.1208C64.2716 23.1545 64.294 23.191 64.3108 23.2303C64.322 23.2528 64.3332 23.2781 64.3443 23.3005C64.3639 23.3427 64.3863 23.3876 64.4031 23.4326C64.4059 23.441 64.4087 23.4522 64.4143 23.4607C64.459 23.5814 64.4898 23.705 64.5094 23.8371C64.5122 23.8483 64.5122 23.8623 64.515 23.8736C64.5261 23.9522 64.5317 24.0281 64.5317 24.1095C64.5317 24.2191 64.5178 24.323 64.501 24.4241C64.4954 24.455 64.4926 24.4831 64.487 24.514C64.4674 24.6095 64.4367 24.6994 64.4031 24.7893C64.3891 24.8258 64.3751 24.8595 64.3583 24.8961C64.322 24.9719 64.2828 25.0449 64.2381 25.118C64.2129 25.1573 64.1877 25.191 64.1626 25.2275C64.1234 25.2809 64.0814 25.3314 64.0395 25.3792C64.0115 25.4101 63.9864 25.441 63.9556 25.4691C63.8801 25.5421 63.799 25.6123 63.7123 25.6713C63.6983 25.6798 63.6843 25.6882 63.6675 25.6966C63.5892 25.7472 63.5081 25.7921 63.4214 25.8286C63.3906 25.8427 63.3571 25.8539 63.3235 25.868C63.248 25.8961 63.1725 25.9213 63.0942 25.941C63.0606 25.9494 63.027 25.9579 62.9935 25.9635C62.8816 25.9831 62.7669 25.9972 62.6523 25.9972C62.5851 25.9972 62.5208 25.9944 62.4565 25.9859C62.4481 25.9859 62.4397 25.9831 62.4313 25.9831C62.3754 25.9775 62.3194 25.9691 62.2635 25.955C62.2607 25.955 62.2579 25.9522 62.2551 25.9522C62.1069 25.9185 61.9642 25.868 61.83 25.8034C61.8104 25.7949 61.7908 25.7837 61.7713 25.7753C61.7097 25.7416 61.6482 25.705 61.5895 25.6657C61.5447 25.6348 61.5028 25.6039 61.4608 25.5674C61.458 25.5646 61.4552 25.5618 61.4496 25.559C61.3797 25.5 61.3154 25.4382 61.2566 25.3708C61.2371 25.3483 61.2147 25.3258 61.1951 25.3005C61.1923 25.2977 61.1895 25.2949 61.1895 25.2921C60.9294 24.9691 60.7728 24.5562 60.7728 24.1067C60.7728 24.0253 60.7812 23.9438 60.7896 23.8652C60.7896 23.8623 60.7896 23.8595 60.7896 23.8567C60.7896 23.8483 60.7952 23.8371 60.7952 23.8286C60.8147 23.7022 60.8455 23.5786 60.8875 23.4607C61.1084 22.7753 61.623 21.9298 62.0985 21.2078C62.3334 20.8989 62.6243 20.4944 62.9236 20.0337L62.9264 20.0309C64.0367 18.3258 65.2477 15.8539 64.0395 14.5449L66.0001 12.2865L58.8542 12.9635C57.5592 13.1376 56.5244 14.4326 56.1244 15.6994H59.3436C60.0792 15.6994 60.784 15.9887 61.307 16.5028L61.6985 16.8848H56.9719L57.4753 17.2556C58.2808 17.8455 59.2485 18.1629 60.2442 18.1629H61.8915C60.2638 19.1208 56.9271 20.2781 55.5595 22.5477L50.7965 22.1432L51.5069 19.6601L49.2666 18.2753V23.2331L54.8659 25.9859L59.0751 25.4354L50.9195 30.4185L51.5069 28.2107L49.2666 26.8258V31.4298V32.1994L50.4357 31.8792C54.8463 30.7668 57.797 31.2163 59.7687 32.3624L54.038 37.8202L57.2879 45.1039L54.0576 44.4579L53.2968 46.9213H60.2833C60.2833 46.9213 56.3706 42.7219 61.3182 40.764C61.3182 40.764 58.0179 40.4607 56.9383 38.0506L61.3182 37.8989C61.3182 37.8989 61.7685 34.8932 60.9126 33.1938C64.0227 35.9747 63.7095 40.7388 63.7095 40.7388C70.7967 39.9944 71.7336 43.8286 71.9294 45.1545L68.4445 44.4579L67.6838 46.9213H74.5165L71.8231 38.5955C68.8053 38.691 67.7173 37.3539 67.4097 36.0871L71.3476 36.7107C71.5126 36.7247 71.6777 36.7388 71.8399 36.7388ZM66.9902 34.205L71.5658 32.2865C71.9434 32.1292 72.3545 32.1685 72.6929 32.3961C73.0313 32.6236 73.2271 32.9888 73.2271 33.3989V33.5618C73.2271 33.9691 73.0509 34.3539 72.7405 34.6208C72.4328 34.8848 72.0273 35.0028 71.6245 34.9382L66.9902 34.205Z" fill="white"/>
<path d="M20.4393 25.9803L25.8092 23.3876V18.2696L23.569 19.6544L24.257 22.0533L19.1164 22.7022C17.662 19.6629 15.3574 18.2809 15.3574 18.2809L18.8954 18.2415L19.2982 16.8792H16.3699L16.8202 15.691H19.4268L19.8995 13.6938C19.7904 13.7022 19.4296 13.7106 19.3206 13.7106C17.911 13.7106 16.6356 13.1376 15.7126 12.2106H10.5161L11.6768 13.5842L9.36661 17.2668H11.0923L9.62951 20.7471H11.3216L10.7762 24.7837L12.4879 24.9943L9.60714 31.3904C9.57637 31.4747 9.54001 31.5561 9.49806 31.6348L9.49527 31.6404C9.11489 32.3511 8.37094 32.8342 7.5151 32.837C7.50951 32.837 7.50392 32.8398 7.49832 32.8398C7.43679 32.8398 7.37526 32.8314 7.31373 32.8258C7.29695 32.823 7.28017 32.823 7.26339 32.823C7.21304 32.8174 7.1655 32.809 7.11516 32.8005C7.076 32.7949 7.03405 32.7865 6.99489 32.778C6.95574 32.7696 6.91658 32.7584 6.88022 32.7472C6.82708 32.7331 6.77674 32.7134 6.7264 32.6966C6.69843 32.6854 6.67325 32.6769 6.64529 32.6685C6.56698 32.6348 6.49146 32.6011 6.41595 32.5589C6.40756 32.5533 6.39637 32.5477 6.38798 32.5421C6.32085 32.5028 6.25653 32.4606 6.1922 32.4157C6.17822 32.4045 6.16423 32.3932 6.15025 32.3848C6.08872 32.337 6.02719 32.2865 5.96845 32.2331C5.96286 32.2275 5.95726 32.2219 5.95167 32.2191C5.61325 31.896 5.37273 31.4719 5.28323 30.9943C5.28043 30.9747 5.27763 30.955 5.27484 30.9354C5.26645 30.8736 5.25806 30.8146 5.25246 30.7528C5.24966 30.7134 5.24687 30.6713 5.24687 30.632C5.24687 30.6123 5.24407 30.5955 5.24407 30.5758C5.24407 30.5533 5.24687 30.5309 5.24687 30.5084C5.24687 30.4606 5.24966 30.4101 5.25526 30.3623C5.25805 30.3314 5.26365 30.3033 5.26645 30.2724C5.29162 30.0814 5.34196 29.8932 5.41468 29.7106C5.41747 29.7022 5.42307 29.691 5.42587 29.6825C5.43985 29.6488 5.45104 29.6151 5.46782 29.5814L7.55146 25.205C7.9598 24.3455 7.90386 23.3483 7.39764 22.5421C6.89141 21.7359 6.02159 21.2528 5.07067 21.2528H3.37019H0C0 22.6095 1.09356 23.7078 2.44444 23.7078C3.0961 23.7078 3.68623 23.4494 4.12534 23.0337H4.1589C4.35747 22.8679 4.60919 22.764 4.88887 22.764C5.52655 22.764 6.04397 23.2837 6.04397 23.9241C6.04397 23.9297 6.04397 23.9325 6.04117 23.9382C6.05515 24.1067 6.02439 24.2752 5.94887 24.4354L3.86523 28.8118C3.26111 30.0786 3.34781 31.5421 4.09177 32.7303C4.83294 33.9129 6.1055 34.6208 7.49553 34.6264C7.67173 35.941 7.02845 38.4213 3.48486 38.5842L0.785911 46.9101H7.68851L6.92777 44.4466L3.38138 45.1545C3.63589 43.8398 4.99236 39.9831 12.0991 40.7275C12.0991 40.7275 11.5174 35.9634 14.4177 33.1825C13.6374 34.8707 14.2527 37.8342 14.2527 37.8342L18.364 38.0393C17.2845 40.4522 13.9842 40.7528 13.9842 40.7528C18.9346 42.7106 15.019 46.9101 15.019 46.9101H22.0726L21.3119 44.4466L18.0368 45.1011L21.3986 37.8005L15.5252 32.337C17.3935 31.205 20.2575 30.7668 24.6206 31.8651L25.8092 32.191V26.8202L23.569 28.205L24.1507 30.3932L13.973 25.1825L20.4393 25.9803Z" fill="white"/>
<defs>
<clipPath id="clip0_311_619">
<rect width="423" height="48" fill="white" transform="translate(112)"/>
</clipPath>
</defs>
</svg>
