<svg width="80" height="70" viewBox="0 0 80 70" fill="none" xmlns="http://www.w3.org/2000/svg">
<path d="M78.3632 35.2821L53.9119 21.2791L63.8351 33.8503C64.7859 35.0554 64.0285 36.841 62.5028 36.9903L55.88 37.6537L57.0796 47.6542C57.1957 48.5996 56.6097 49.4841 55.6975 49.755L28.46 57.7654L40.5281 69.452C41.2523 70.1541 42.4021 70.1873 43.1595 69.5184L47.8032 65.4551L63.7798 65.2008C64.0672 65.2008 64.2055 64.847 64.0009 64.6425L56.7534 57.6216L78.6783 38.4387C79.6845 37.5597 79.5242 35.951 78.3632 35.2876" fill="#0EA6CE"/>
<path d="M62.502 36.9958C64.0278 36.841 64.7907 35.0609 63.8343 33.8503L53.9111 21.2791L55.8792 37.6537L62.502 36.9903V36.9958Z" fill="#BFE0D6"/>
<path d="M57.0786 47.6543L55.879 37.6537L12.2061 42.021L28.459 57.7599L55.6966 49.7495C56.6087 49.4841 57.1892 48.5941 57.0786 47.6487" fill="#F2E9BF"/>
<path d="M53.911 21.2845L12.2061 42.0209L55.879 37.6536L53.911 21.2845H53.9054H53.911Z" fill="white"/>
<path d="M16.1372 29.6157L53.906 21.2847L46.8741 12.3787L50.6389 1.55999C50.7328 1.28911 50.4509 1.03481 50.1911 1.16196L41.3791 5.42422L37.6807 0.741813C37.1721 0.0950104 36.3152 -0.159288 35.5357 0.100539L3.36149 10.8253C2.46592 11.1238 1.9131 12.0249 2.05683 12.9592L6.17536 40.7662C6.33015 41.7944 7.25889 42.5186 8.29819 42.4191L12.2122 42.0266L14.6667 31.0973C14.8326 30.362 15.4075 29.7871 16.1483 29.6213" fill="#E5332A"/>
<path d="M10.8025 48.7655L0.160648 55.0235C-0.0881221 55.1672 -0.0383681 55.5431 0.243571 55.615L8.9063 57.865L8.31478 60.7065C8.01625 62.1494 9.35961 63.3877 10.7693 62.9731L28.4596 57.771L12.2066 42.0322L10.8025 48.7766V48.7655Z" fill="#FFD200"/>
<path d="M53.9116 21.2845L16.1373 29.6156C15.402 29.7759 14.8216 30.3508 14.6557 31.0916L12.2012 42.0209L53.9116 21.2845Z" fill="#F27A4D"/>
</svg>
