<svg width="13" height="6" viewBox="0 0 13 6" fill="none" xmlns="http://www.w3.org/2000/svg">
<path d="M2.51251 5.31369C2.36749 5.31369 2.24724 5.26519 2.15176 5.16819C2.05627 5.07117 2.00853 4.94848 2.00853 4.8001V1.71369H1.27437C1.12729 1.71369 1.00418 1.66528 0.905054 1.56847C0.805916 1.47163 0.756348 1.34917 0.756348 1.2011C0.756348 1.05301 0.804604 0.930223 0.901117 0.832736C0.997629 0.735261 1.11969 0.686523 1.26729 0.686523H2.39904C2.58242 0.686523 2.73262 0.745017 2.84962 0.862004C2.96662 0.979004 3.02512 1.1292 3.02512 1.3126V4.8001C3.02512 4.94848 2.9767 5.07117 2.87988 5.16819C2.78305 5.26519 2.6606 5.31369 2.51251 5.31369ZM5.2156 5.31369C5.0322 5.31369 4.88201 5.25519 4.76502 5.1382C4.64802 5.0212 4.58952 4.86973 4.58952 4.68378V3.25503C4.58952 3.04095 4.65349 2.86995 4.78143 2.74201C4.90935 2.61407 5.08032 2.5501 5.29432 2.5501H7.06452V1.71369H5.10579C4.94951 1.71369 4.8244 1.66528 4.73045 1.56847C4.6365 1.47163 4.58952 1.34917 4.58952 1.2011C4.58952 1.05301 4.6365 0.930223 4.73045 0.832736C4.8244 0.735261 4.94862 0.686523 5.1031 0.686523H7.3906C7.59613 0.686523 7.76436 0.750486 7.8953 0.878411C8.02624 1.00635 8.0917 1.17735 8.0917 1.39143V2.74518C8.0917 2.95925 8.02624 3.13026 7.8953 3.2582C7.76436 3.38614 7.59613 3.4501 7.3906 3.4501H5.6167V4.28652H7.5781C7.72648 4.28652 7.84917 4.33494 7.94619 4.43176C8.0432 4.52859 8.0917 4.65104 8.0917 4.79911C8.0917 4.9472 8.0432 5.06999 7.94619 5.16747C7.84917 5.26495 7.72648 5.31369 7.5781 5.31369H5.2156ZM9.88029 5.31369C9.73192 5.31369 9.60924 5.26527 9.51222 5.16845C9.41521 5.07162 9.3667 4.94917 9.3667 4.8011C9.3667 4.65301 9.41521 4.53022 9.51222 4.43274C9.60924 4.33526 9.73192 4.28652 9.88029 4.28652H11.8417V3.455H10.5667C10.4467 3.455 10.3417 3.40918 10.2517 3.31754C10.1617 3.22592 10.1167 3.1201 10.1167 3.0001C10.1167 2.8801 10.1617 2.7751 10.2517 2.6851C10.3417 2.5951 10.4467 2.5501 10.5667 2.5501H11.8417V1.71369H9.88029C9.73192 1.71369 9.60924 1.66528 9.51222 1.56847C9.41521 1.47163 9.3667 1.34917 9.3667 1.2011C9.3667 1.05301 9.41521 0.930223 9.51222 0.832736C9.60924 0.735261 9.73192 0.686523 9.88029 0.686523H12.1678C12.3793 0.686523 12.549 0.750486 12.677 0.878411C12.8049 1.00635 12.8689 1.17608 12.8689 1.3876V4.6126C12.8689 4.82413 12.8049 4.99386 12.677 5.1218C12.549 5.24972 12.3793 5.31369 12.1678 5.31369H9.88029Z" fill="#0EA6CE"/>
</svg>
