<svg width="24" height="24" viewBox="0 0 24 24" fill="none" xmlns="http://www.w3.org/2000/svg">
<path d="M9.4498 17.8C9.31647 17.8 9.19147 17.775 9.0748 17.725C8.95814 17.675 8.8498 17.6 8.7498 17.5L4.2248 12.975C4.0248 12.775 3.9248 12.5334 3.9248 12.25C3.9248 11.9667 4.0248 11.725 4.2248 11.525C4.4248 11.325 4.6623 11.225 4.9373 11.225C5.2123 11.225 5.4498 11.325 5.6498 11.525L9.4498 15.325L18.3498 6.45002C18.5331 6.25002 18.7623 6.15002 19.0373 6.15002C19.3123 6.15002 19.5498 6.25002 19.7498 6.45002C19.9498 6.65002 20.0498 6.89169 20.0498 7.17502C20.0498 7.45836 19.9498 7.69169 19.7498 7.87502L10.1498 17.5C10.0498 17.6 9.94147 17.675 9.8248 17.725C9.70814 17.775 9.58314 17.8 9.4498 17.8Z" fill="white"/>
</svg>
