<svg width="24" height="24" viewBox="0 0 24 24" fill="none" xmlns="http://www.w3.org/2000/svg">
<path d="M4.40036 16.2805C4.69078 16.5263 5.01472 16.6547 5.37216 16.6659C5.7296 16.6771 6.04236 16.5486 6.31044 16.2805L11.9737 10.6173L17.6704 16.314C17.9162 16.5598 18.2345 16.6771 18.6255 16.6659C19.0164 16.6547 19.3348 16.5263 19.5805 16.2805C19.8709 15.9901 20.0105 15.6718 19.9994 15.3255C19.9882 14.9792 19.8486 14.672 19.5805 14.404L12.912 7.73542C12.7779 7.60137 12.6327 7.50084 12.4763 7.43382C12.3199 7.3668 12.1524 7.33329 11.9737 7.33329C11.795 7.33329 11.6274 7.3668 11.471 7.43382C11.3146 7.50084 11.1694 7.60137 11.0354 7.73542L4.40036 14.3704C4.13228 14.6385 4.00382 14.9513 4.01499 15.3087C4.02616 15.6662 4.15462 15.9901 4.40036 16.2805Z" fill="#0EA6CE"/>
</svg>
