<svg width="16" height="16" viewBox="0 0 16 16" fill="none" xmlns="http://www.w3.org/2000/svg">
<path d="M4.8123 11.7125H8.84355C8.99356 11.7125 9.1248 11.6594 9.2373 11.5531C9.3498 11.4469 9.40606 11.3125 9.40606 11.15C9.40606 11 9.3498 10.8688 9.2373 10.7563C9.1248 10.6438 8.99356 10.5875 8.84355 10.5875H4.8123C4.6498 10.5875 4.51543 10.6438 4.40918 10.7563C4.30293 10.8688 4.2498 11.0063 4.2498 11.1688C4.2498 11.3188 4.30293 11.4469 4.40918 11.5531C4.51543 11.6594 4.6498 11.7125 4.8123 11.7125ZM4.8123 8.5625H11.2061C11.3561 8.5625 11.4873 8.50938 11.5998 8.40313C11.7123 8.29688 11.7686 8.1625 11.7686 8C11.7686 7.8375 11.7123 7.70312 11.5998 7.59687C11.4873 7.49062 11.3561 7.4375 11.2061 7.4375H4.8123C4.6498 7.4375 4.51543 7.49062 4.40918 7.59687C4.30293 7.70312 4.2498 7.8375 4.2498 8C4.2498 8.1625 4.30293 8.29688 4.40918 8.40313C4.51543 8.50938 4.6498 8.5625 4.8123 8.5625ZM4.8123 5.39375H11.2061C11.3561 5.39375 11.4873 5.34062 11.5998 5.23438C11.7123 5.12813 11.7686 4.99375 11.7686 4.83125C11.7686 4.68125 11.7123 4.55 11.5998 4.4375C11.4873 4.325 11.3561 4.26875 11.2061 4.26875H4.8123C4.6498 4.26875 4.51543 4.325 4.40918 4.4375C4.30293 4.55 4.2498 4.6875 4.2498 4.85C4.2498 5 4.30293 5.12813 4.40918 5.23438C4.51543 5.34062 4.6498 5.39375 4.8123 5.39375ZM2.46855 15.0125C2.06855 15.0125 1.72168 14.8656 1.42793 14.5719C1.13418 14.2781 0.987305 13.9312 0.987305 13.5312V2.46875C0.987305 2.05625 1.13418 1.70313 1.42793 1.40938C1.72168 1.11563 2.06855 0.96875 2.46855 0.96875H13.5311C13.9436 0.96875 14.2967 1.11563 14.5904 1.40938C14.8842 1.70313 15.0311 2.05625 15.0311 2.46875V13.5312C15.0311 13.9312 14.8842 14.2781 14.5904 14.5719C14.2967 14.8656 13.9436 15.0125 13.5311 15.0125H2.46855ZM2.46855 13.5312H13.5311V2.46875H2.46855V13.5312ZM2.46855 13.5312V2.46875V13.5312Z" fill="#0EA6CE"/>
</svg>
