<svg width="16" height="14" viewBox="0 0 16 14" fill="none" xmlns="http://www.w3.org/2000/svg">
<path d="M1.71855 13.2625C1.31855 13.2625 0.97168 13.1156 0.67793 12.8219C0.38418 12.5281 0.237305 12.1812 0.237305 11.7812V2.21875C0.237305 1.80625 0.38418 1.45313 0.67793 1.15938C0.97168 0.865625 1.31855 0.71875 1.71855 0.71875H14.2811C14.6936 0.71875 15.0467 0.865625 15.3404 1.15938C15.6342 1.45313 15.7811 1.80625 15.7811 2.21875V11.7812C15.7811 12.1812 15.6342 12.5281 15.3404 12.8219C15.0467 13.1156 14.6936 13.2625 14.2811 13.2625H1.71855ZM14.2811 3.49375L8.4123 7.39375C8.33731 7.43125 8.26855 7.4625 8.20605 7.4875C8.14355 7.5125 8.0748 7.525 7.9998 7.525C7.92481 7.525 7.85606 7.5125 7.79356 7.4875C7.73106 7.4625 7.6623 7.43125 7.58731 7.39375L1.71855 3.49375V11.7812H14.2811V3.49375ZM7.9998 6.30625L14.2061 2.21875H1.8123L7.9998 6.30625ZM1.71855 3.49375V3.6625V2.75313V2.78125V2.21875V2.7625V2.74375V3.6625V3.49375V11.7812V3.49375Z" fill="#0EA6CE"/>
</svg>
