<svg width="18" height="14" viewBox="0 0 18 14" fill="none" xmlns="http://www.w3.org/2000/svg">
<path d="M1.48145 13.8627C1.06895 13.8627 0.71582 13.7189 0.42207 13.4314C0.12832 13.1439 -0.0185547 12.7939 -0.0185547 12.3814V1.61895C-0.0185547 1.20645 0.12832 0.856445 0.42207 0.568945C0.71582 0.281445 1.06895 0.137695 1.48145 0.137695H16.5189C16.9189 0.137695 17.2658 0.281445 17.5596 0.568945C17.8533 0.856445 18.0002 1.20645 18.0002 1.61895V12.3814C18.0002 12.7939 17.8533 13.1439 17.5596 13.4314C17.2658 13.7189 16.9189 13.8627 16.5189 13.8627H1.48145ZM11.2877 12.5127H16.6314V1.4877H1.3502V12.5127H1.5377C2.0877 11.5877 2.7877 10.8877 3.6377 10.4127C4.4877 9.93769 5.41269 9.7002 6.41269 9.7002C7.4127 9.7002 8.33457 9.93769 9.17832 10.4127C10.0221 10.8877 10.7252 11.5877 11.2877 12.5127ZM6.39394 8.25645C7.04394 8.25645 7.58457 8.0377 8.01582 7.6002C8.44707 7.1627 8.66269 6.61895 8.66269 5.96895C8.66269 5.33145 8.44707 4.79395 8.01582 4.35645C7.58457 3.91895 7.04394 3.7002 6.39394 3.7002C5.74394 3.7002 5.2002 3.91895 4.7627 4.35645C4.3252 4.79395 4.10645 5.3377 4.10645 5.9877C4.10645 6.6252 4.3252 7.1627 4.7627 7.6002C5.2002 8.0377 5.74394 8.25645 6.39394 8.25645ZM11.2689 6.15645H14.6439C14.8439 6.15645 15.0158 6.08457 15.1596 5.94082C15.3033 5.79707 15.3752 5.61895 15.3752 5.40645V3.49395C15.3752 3.28145 15.3033 3.10332 15.1596 2.95957C15.0158 2.81582 14.8439 2.74395 14.6439 2.74395H11.2689C11.0564 2.74395 10.8783 2.81582 10.7346 2.95957C10.5908 3.10332 10.5189 3.28145 10.5189 3.49395V5.40645C10.5189 5.61895 10.5908 5.79707 10.7346 5.94082C10.8783 6.08457 11.0564 6.15645 11.2689 6.15645ZM3.2627 12.5127H9.50644C9.05645 12.0002 8.57207 11.6283 8.05332 11.3971C7.53457 11.1658 6.98144 11.0502 6.39394 11.0502C5.80644 11.0502 5.24395 11.1596 4.70645 11.3783C4.16895 11.5971 3.6877 11.9752 3.2627 12.5127ZM6.39394 7.0002C6.10644 7.0002 5.8627 6.9002 5.6627 6.7002C5.4627 6.5002 5.3627 6.2627 5.3627 5.9877C5.3627 5.7002 5.4627 5.45645 5.6627 5.25645C5.8627 5.05645 6.10644 4.95645 6.39394 4.95645C6.68144 4.95645 6.92207 5.05645 7.11582 5.25645C7.30957 5.45645 7.40645 5.7002 7.40645 5.9877C7.40645 6.2752 7.30645 6.51582 7.10645 6.70957C6.90645 6.90332 6.66894 7.0002 6.39394 7.0002ZM12.9752 5.4627L11.0252 4.0002V3.2502L12.9564 4.7127L14.8877 3.2502V4.0002L12.9752 5.4627Z" fill="#0EA6CE"/>
</svg>
