<svg width="14" height="16" viewBox="0 0 14 16" fill="none" xmlns="http://www.w3.org/2000/svg">
<path d="M4.0202 14.2798H9.97944V11.9965C9.97944 11.141 9.69376 10.4082 9.12239 9.79812C8.55102 9.18807 7.84409 8.88304 7.0016 8.88304C6.15911 8.88304 5.45159 9.1881 4.87903 9.79821C4.30648 10.4083 4.0202 11.1411 4.0202 11.9966V14.2798ZM6.99804 7.11728C7.84053 7.11728 8.54805 6.81207 9.12061 6.20164C9.69316 5.59123 9.97944 4.85172 9.97944 3.98312V1.72054H4.0202V3.98322C4.0202 4.85185 4.30588 5.59135 4.87724 6.20172C5.44862 6.81209 6.15555 7.11728 6.99804 7.11728ZM12.5221 15.7651H1.47753C1.26869 15.7651 1.09271 15.6932 0.94957 15.5495C0.806432 15.4057 0.734863 15.2289 0.734863 15.0192C0.734863 14.8094 0.806432 14.6337 0.94957 14.4921C1.09271 14.3506 1.26869 14.2798 1.47753 14.2798H2.53486V11.9976C2.53486 11.1413 2.74709 10.3493 3.17154 9.62162C3.596 8.89391 4.19328 8.35342 4.96338 8.00016C4.19328 7.63983 3.596 7.09445 3.17154 6.36402C2.74709 5.63358 2.53486 4.84023 2.53486 3.98397V1.72054H1.47753C1.26869 1.72054 1.09271 1.64866 0.94957 1.5049C0.806432 1.36112 0.734863 1.18466 0.734863 0.975509C0.734863 0.766359 0.806432 0.588922 0.94957 0.443197C1.09271 0.297472 1.26869 0.224609 1.47753 0.224609H12.5221C12.7301 0.224609 12.9076 0.298565 13.0547 0.446478C13.2018 0.594403 13.2754 0.772941 13.2754 0.982091C13.2754 1.19124 13.2018 1.3666 13.0547 1.50818C12.9076 1.64975 12.7301 1.72054 12.5221 1.72054H11.4754V3.98397C11.4754 4.84023 11.2583 5.63358 10.824 6.36402C10.3898 7.09445 9.79739 7.63983 9.04685 8.00016C9.80989 8.35342 10.4054 8.8944 10.8334 9.62309C11.2614 10.3518 11.4754 11.142 11.4754 11.9939V14.2798H12.5221C12.7301 14.2798 12.9076 14.3517 13.0547 14.4954C13.2018 14.6392 13.2754 14.816 13.2754 15.0257C13.2754 15.2355 13.2018 15.4112 13.0547 15.5528C12.9076 15.6943 12.7301 15.7651 12.5221 15.7651Z" fill="#0EA6CE"/>
</svg>
