<svg width="12" height="12" viewBox="0 0 12 12" fill="none" xmlns="http://www.w3.org/2000/svg">
<g clip-path="url(#clip0_334_1038)">
<g clip-path="url(#clip1_334_1038)">
<path d="M6.0377 8.575C6.1627 8.575 6.26895 8.53333 6.35645 8.45C6.44395 8.36667 6.4877 8.25833 6.4877 8.125V5.9375C6.4877 5.82083 6.44395 5.71875 6.35645 5.63125C6.26895 5.54375 6.1627 5.5 6.0377 5.5C5.9127 5.5 5.80645 5.54375 5.71895 5.63125C5.63145 5.71875 5.5877 5.825 5.5877 5.95V8.1375C5.5877 8.2625 5.63145 8.36667 5.71895 8.45C5.80645 8.53333 5.9127 8.575 6.0377 8.575ZM6.0002 4.675C6.1502 4.675 6.27311 4.62917 6.36895 4.5375C6.46478 4.44583 6.5127 4.325 6.5127 4.175C6.5127 4.025 6.46478 3.9 6.36895 3.8C6.27311 3.7 6.1502 3.65 6.0002 3.65C5.8502 3.65 5.72728 3.7 5.63145 3.8C5.53561 3.9 5.4877 4.025 5.4877 4.175C5.4877 4.325 5.53561 4.44583 5.63145 4.5375C5.72728 4.62917 5.8502 4.675 6.0002 4.675ZM6.0002 11.175C5.26686 11.175 4.58561 11.0437 3.95645 10.7812C3.32728 10.5188 2.77936 10.1542 2.3127 9.6875C1.84603 9.22083 1.48145 8.67292 1.21895 8.04375C0.956445 7.41458 0.825195 6.73333 0.825195 6C0.825195 5.275 0.956445 4.59583 1.21895 3.9625C1.48145 3.32917 1.84603 2.78125 2.3127 2.31875C2.77936 1.85625 3.32728 1.48958 3.95645 1.21875C4.58561 0.947917 5.26686 0.8125 6.0002 0.8125C6.7252 0.8125 7.40436 0.947917 8.0377 1.21875C8.67103 1.48958 9.21895 1.85625 9.68145 2.31875C10.1439 2.78125 10.5106 3.32708 10.7814 3.95625C11.0523 4.58542 11.1877 5.26667 11.1877 6C11.1877 6.73333 11.0523 7.41458 10.7814 8.04375C10.5106 8.67292 10.1439 9.22083 9.68145 9.6875C9.21895 10.1542 8.67103 10.5188 8.0377 10.7812C7.40436 11.0437 6.7252 11.175 6.0002 11.175ZM6.0002 10.1875C7.1502 10.1875 8.13561 9.77917 8.95645 8.9625C9.77728 8.14583 10.1877 7.15833 10.1877 6C10.1877 4.85 9.77728 3.86458 8.95645 3.04375C8.13561 2.22292 7.1502 1.8125 6.0002 1.8125C4.8502 1.8125 3.86478 2.22292 3.04395 3.04375C2.22311 3.86458 1.8127 4.85 1.8127 6C1.8127 7.15833 2.22311 8.14583 3.04395 8.9625C3.86478 9.77917 4.8502 10.1875 6.0002 10.1875Z" fill="#0EA6CE"/>
</g>
</g>
<defs>
<clipPath id="clip0_334_1038">
<rect width="12" height="12" fill="white"/>
</clipPath>
<clipPath id="clip1_334_1038">
<rect width="12" height="12" fill="white"/>
</clipPath>
</defs>
</svg>
